<svg id="Capa_1" enable-background="new 0 0 512 512" height="512" viewBox="0 0 512 512" width="512" xmlns="http://www.w3.org/2000/svg"><g><path d="m511.608 89.155c-2.178-24.748-32.221-35.767-49.806-18.179l-25.119 25.119c-5.616 5.616-14.837 5.708-20.556.204-5.933-5.711-5.625-15.55.207-21.382l24.706-24.706c17.569-17.569 6.596-47.623-18.172-49.804-67.319-5.919-120.714 56.688-102.861 123.076l-305.804 305.804c-18.936 18.935-18.939 49.586 0 68.525 18.893 18.892 49.632 18.893 68.525 0l305.725-305.726c65.595 17.836 129.137-34.999 123.155-102.931z"/><path d="m31.999 117.46c.717 1.414 1.653 2.706 2.774 3.827l43.408 43.407c5.858 5.858 15.355 5.857 21.212 0l22.075-22.075 42.158 42.158-45.071 45.07c-11.679 11.7-11.669 30.729.01 42.418l4.73 4.73 153.833-153.823-4.73-4.73c-11.74-11.719-30.682-11.736-42.438 0l-45.122 45.122-42.158-42.158 22.075-22.075c5.858-5.857 5.858-15.355 0-21.212l-43.407-43.408c-1.133-1.134-2.441-2.078-3.873-2.797l-55.482-27.872c-5.78-2.904-12.766-1.777-17.34 2.797l-37.91 37.909c-4.586 4.586-5.705 11.599-2.774 17.385z"/><path d="m364.924 258.046-106.775 106.775 122.624 122.654c29.499 29.499 77.257 29.508 106.765 0 29.439-29.438 29.439-77.336 0-106.765zm87.866 194.651c-5.82 5.84-15.342 5.867-21.209 0l-85.136-85.136c-5.86-5.86-5.86-15.359 0-21.209 5.86-5.86 15.359-5.86 21.209 0l85.136 85.136c5.859 5.86 5.859 15.349 0 21.209z"/></g></svg>